<?xml version="1.0" encoding="UTF-8"?>
<svg version="1.1" xmlns="http://www.w3.org/2000/svg" width="121" height="119">
<path d="M0 0 C13.64304478 10.45896478 21.56327111 24.42036035 24.2109375 41.33203125 C26.13603728 57.18439607 21.28601113 72.78472984 11.64453125 85.33984375 C1.35439154 97.96519967 -11.32953778 105.2719696 -27.47265625 107.9375 C-43.8709067 109.57561867 -59.46555964 105.15387256 -72.59765625 95.25 C-84.25967241 85.47072312 -92.33809233 72.11069185 -94.47265625 56.9375 C-95.93200312 39.22988937 -92.02595832 23.04149724 -80.50390625 9.09375 C-59.27019075 -13.44665568 -25.6858249 -17.50106131 0 0 Z " fill="#06AFF0" transform="translate(96.47265625,10.0625)"/>
<path d="M0 0 C0 8.25 0 16.5 0 25 C-4.95 22.03 -4.95 22.03 -10 19 C-18.59195605 16.85201099 -26.26041195 17.49526568 -34 22 C-39.49873721 26.3642609 -41.93769706 32.16653204 -43 39 C-43.27150984 46.47783355 -41.50266793 53.17427046 -36.390625 58.7578125 C-30.23670655 64.39436613 -24.33727681 65.50718872 -16.11328125 65.39453125 C-9.93288547 64.61131924 -5.09140622 61.39427081 0 58 C0 66.25 0 74.5 0 83 C-12.22176315 87.58316118 -25.67113145 89.56584355 -38 84 C-50.59498082 77.71230351 -59.61949223 69.26694568 -64.3125 55.9375 C-67.95133153 43.09019683 -66.96648835 29.9648258 -60.45703125 18.21484375 C-46.50324298 -2.95532014 -23.17470897 -8.33247963 0 0 Z " fill="#FFFFFF" transform="translate(83,17)"/>
<path d="M0 0 C1.13115234 -0.00773438 2.26230469 -0.01546875 3.42773438 -0.0234375 C4.50990234 -0.02085938 5.59207031 -0.01828125 6.70703125 -0.015625 C7.68776611 -0.01336914 8.66850098 -0.01111328 9.67895508 -0.00878906 C12.1875 0.25 12.1875 0.25 15.1875 2.25 C12.2175 2.25 9.2475 2.25 6.1875 2.25 C5.5275 4.89 4.8675 7.53 4.1875 10.25 C4.8475 10.25 5.5075 10.25 6.1875 10.25 C6.1875 10.91 6.1875 11.57 6.1875 12.25 C7.8375 12.25 9.4875 12.25 11.1875 12.25 C11.6825 13.24 11.6825 13.24 12.1875 14.25 C10.95515625 14.20359375 9.7228125 14.1571875 8.453125 14.109375 C-7.20083994 13.69267533 -19.87760081 16.21656614 -31.87890625 27.12890625 C-41.29801199 37.1990085 -44.34906313 48.87676412 -44.12109375 62.3671875 C-43.20691615 73.8696246 -38.83226152 83.58376444 -30.41796875 91.50390625 C-18.33093697 101.58571617 -6.41642433 104.57044128 9.1875 103.25 C12.8175 102.26 16.4475 101.27 20.1875 100.25 C20.5175 92.33 20.8475 84.41 21.1875 76.25 C21.8475 76.25 22.5075 76.25 23.1875 76.25 C23.3844993 80.3329333 23.56845476 84.41635266 23.75 88.5 C23.83411133 90.23830078 23.83411133 90.23830078 23.91992188 92.01171875 C23.96826172 93.12675781 24.01660156 94.24179688 24.06640625 95.390625 C24.13710327 96.93024902 24.13710327 96.93024902 24.20922852 98.50097656 C24.1875 101.25 24.1875 101.25 23.63256836 103.42871094 C22.96357229 105.46553627 22.96357229 105.46553627 24.1875 108.25 C26.18415314 109.93538601 26.18415314 109.93538601 28.1875 111.25 C10.73189 118.98835841 -4.45885242 120.6112074 -22.8125 114.25 C-37.89641957 108.36308139 -48.78537754 96.82536206 -55.55859375 82.30078125 C-61.26328488 68.42114333 -62.01114941 52.43879501 -56.8125 38.25 C-50.07442222 22.11945017 -39.54655181 11.15580725 -23.83203125 3.44140625 C-15.78120894 0.26482048 -8.58528589 -0.05972373 0 0 Z " fill="#07AFEF" transform="translate(61.8125,-0.25)"/>
<path d="M0 0 C1.78515625 1.51171875 1.78515625 1.51171875 3 3 C3 3.66 3 4.32 3 5 C0.525 4.505 0.525 4.505 -2 4 C-2.495 2.515 -2.495 2.515 -3 1 C-5.475 0.505 -5.475 0.505 -8 0 C-8 -0.66 -8 -1.32 -8 -2 C-9.46015291 -1.71758359 -10.91809793 -1.42373386 -12.375 -1.125 C-13.18710938 -0.96257813 -13.99921875 -0.80015625 -14.8359375 -0.6328125 C-17.18673923 -0.13341068 -17.18673923 -0.13341068 -19 2 C-21.6015625 2.1953125 -21.6015625 2.1953125 -24.625 2.125 C-26.12933594 2.09792969 -26.12933594 2.09792969 -27.6640625 2.0703125 C-28.43492188 2.04710937 -29.20578125 2.02390625 -30 2 C-30 2.99 -30 3.98 -30 5 C-30.99 5.66 -31.98 6.32 -33 7 C-32.34 8.65 -31.68 10.3 -31 12 C-31.33 12.33 -31.66 12.66 -32 13 C-31.34 13.33 -30.68 13.66 -30 14 C-30 13.34 -30 12.68 -30 12 C-28.68 12 -27.36 12 -26 12 C-25.79375 11.401875 -25.5875 10.80375 -25.375 10.1875 C-23.39531636 7.0380033 -21.46892258 6.28478614 -18 5 C-12.67827206 4.21552218 -8.51093236 4.88530861 -4 8 C-2.625 10.6875 -2.625 10.6875 -2 13 C-3.98 13.66 -5.96 14.32 -8 15 C-8.5259375 14.2575 -8.5259375 14.2575 -9.0625 13.5 C-12.05072823 11.18653299 -14.34503841 11.5431298 -18 12 C-20.15479867 13.34155783 -20.15479867 13.34155783 -21 16 C-21.64213079 20.37451602 -21.78226912 23.76642178 -19.375 27.5625 C-16.31352771 29.41549639 -14.5214898 29.5244772 -11 29 C-8.96332385 27.45493534 -8.13926922 26.27853844 -7 24 C-8.98 24 -10.96 24 -13 24 C-13 22.35 -13 20.7 -13 19 C-8.05 19 -3.1 19 2 19 C2 26.35294118 2 26.35294118 0 30 C-0.38290462 31.99110401 -0.72604615 33.99100513 -1 36 C0.65 36 2.3 36 4 36 C0.70637159 41.15524448 -3.22550851 43.40407813 -9 45 C-17.01081892 45.94740303 -24.26180709 45.41500146 -30.90234375 40.62890625 C-36.06660252 36.07606078 -38.62893079 30.70200281 -40 24 C-40.42528195 16.18544421 -38.73757721 9.17394409 -33.4609375 3.28125 C-23.72834843 -5.78472338 -11.4932824 -6.30548888 0 0 Z " fill="#11AFEA" transform="translate(79,38)"/>
<path d="M0 0 C3.85109982 1.3550166 5.50182233 2.0262891 7.375 5.6875 C7.58125 6.450625 7.7875 7.21375 8 8 C6.02 8.66 4.04 9.32 2 10 C1.649375 9.505 1.29875 9.01 0.9375 8.5 C-2.05072823 6.18653299 -4.34503841 6.5431298 -8 7 C-10.15479867 8.34155783 -10.15479867 8.34155783 -11 11 C-11.64213079 15.37451602 -11.78226912 18.76642178 -9.375 22.5625 C-6.31352771 24.41549639 -4.5214898 24.5244772 -1 24 C1.03667615 22.45493534 1.86073078 21.27853844 3 19 C1.02 19 -0.96 19 -3 19 C-3 17.35 -3 15.7 -3 14 C1.29 14 5.58 14 10 14 C10.45647158 19.70589472 9.69917584 22.60098008 6 27 C2.16235077 30.38616109 -1.63684773 30.51612556 -6.56640625 30.34765625 C-11.55562546 29.63491065 -14.15252727 26.9589823 -17.375 23.3125 C-19.48461416 19.01213267 -19.80979344 15.70334572 -19 11 C-17.26095324 6.17344776 -14.66227344 3.20844531 -10 1 C-6.79755722 -0.60122139 -3.4827565 -0.35604388 0 0 Z " fill="#FFFFFF" transform="translate(69,43)"/>
<path d="M0 0 C0.66 0 1.32 0 2 0 C2.1969993 4.0829333 2.38095476 8.16635266 2.5625 12.25 C2.64661133 13.98830078 2.64661133 13.98830078 2.73242188 15.76171875 C2.78076172 16.87675781 2.82910156 17.99179688 2.87890625 19.140625 C2.9260376 20.16704102 2.97316895 21.19345703 3.02172852 22.25097656 C3 25 3 25 2.44506836 27.17871094 C1.77607229 29.21553627 1.77607229 29.21553627 3 32 C4.99665314 33.68538601 4.99665314 33.68538601 7 35 C-6.35288305 40.91955222 -19.33633825 44.49801091 -34 41 C-34 40.67 -34 40.34 -34 40 C-33.16807129 39.98598145 -33.16807129 39.98598145 -32.31933594 39.97167969 C-29.79533519 39.91784278 -27.27316186 39.83422746 -24.75 39.75 C-23.87730469 39.73582031 -23.00460938 39.72164062 -22.10546875 39.70703125 C-16.84490626 39.55833294 -16.84490626 39.55833294 -12.390625 36.953125 C-11.93171875 36.30859375 -11.4728125 35.6640625 -11 35 C-11.66 34.01 -12.32 33.02 -13 32 C-12.67 31.34 -12.34 30.68 -12 30 C-13.71896484 30.05220703 -13.71896484 30.05220703 -15.47265625 30.10546875 C-17.00258939 30.13362703 -18.53253854 30.16092499 -20.0625 30.1875 C-20.81466797 30.21263672 -21.56683594 30.23777344 -22.34179688 30.26367188 C-27.66631856 30.33282151 -31.24346434 29.40669334 -36 27 C-32.47984267 25.86852086 -32.47984267 25.86852086 -30.33203125 26.45703125 C-27.0446071 27.22244491 -23.79451918 27.22454393 -20.4375 27.25 C-19.45813477 27.2809375 -19.45813477 27.2809375 -18.45898438 27.3125 C-11.89980003 27.36310123 -7.84607927 25.86711253 -1 24 C-0.67 16.08 -0.34 8.16 0 0 Z " fill="#18AEE8" transform="translate(83,76)"/>
<path d="M0 0 C0.66 0 1.32 0 2 0 C2.66 1.98 3.32 3.96 4 6 C0.52674819 7.1577506 -2.36067448 7.06866652 -6 7 C-6 7.66 -6 8.32 -6 9 C-3.36 9 -0.72 9 2 9 C2 9.33 2 9.66 2 10 C-1.96 10 -5.92 10 -10 10 C-10 11.65 -10 13.3 -10 15 C-8.02 15 -6.04 15 -4 15 C-5.75 19.875 -5.75 19.875 -8 21 C-11.93429172 21.52457223 -13.54458957 21.30690703 -16.875 19.0625 C-19.36997333 15.46680315 -19.68576604 13.44306203 -19.4140625 9.16015625 C-18.76254389 5.76119596 -17.7005597 4.14659873 -15 2 C-10.58440935 1.45773448 -8.73255448 1.51163035 -5 4 C-5 4.66 -5 5.32 -5 6 C-3.02 5.34 -1.04 4.68 1 4 C0.67 2.68 0.34 1.36 0 0 Z " fill="#07B0F1" transform="translate(76,47)"/>
<path d="M0 0 C0.66 0 1.32 0 2 0 C2.16823707 4.3741638 2.09451417 7.18059182 0 11 C-0.38290462 12.99110401 -0.72604615 14.99100513 -1 17 C0.65 17 2.3 17 4 17 C1.14965019 21.05626703 -1.31518506 23.27904757 -6 25 C-8.875 24.6875 -8.875 24.6875 -11 24 C-12 21 -12 21 -11 18 C-14.3 17.67 -17.6 17.34 -21 17 C-21 16.34 -21 15.68 -21 15 C-19.80503906 15.06960937 -19.80503906 15.06960937 -18.5859375 15.140625 C-11.68350731 15.57490933 -11.68350731 15.57490933 -5.375 13.25 C-1.08607679 9.18680959 -0.67252328 5.82853512 0 0 Z " fill="#1BADE5" transform="translate(79,57)"/>
<path d="M0 0 C0.928125 0.2784375 0.928125 0.2784375 1.875 0.5625 C4.04160178 1.23686176 4.04160178 1.23686176 6 0 C6.99 0.33 7.98 0.66 9 1 C9 1.66 9 2.32 9 3 C12.96 3 16.92 3 21 3 C20.01 3.495 20.01 3.495 19 4 C19 5.65 19 7.3 19 9 C19.66 9.33 20.32 9.66 21 10 C20.67 10.66 20.34 11.32 20 12 C6.93880861 10.71874111 6.93880861 10.71874111 3.6875 7.5625 C2 5 2 5 2 2 C1.34 1.34 0.68 0.68 0 0 Z " fill="#05B1F1" transform="translate(49,71)"/>
<path d="M0 0 C0.66 0 1.32 0 2 0 C2.66 1.98 3.32 3.96 4 6 C0.52674819 7.1577506 -2.36067448 7.06866652 -6 7 C-6 7.66 -6 8.32 -6 9 C-3.36 9 -0.72 9 2 9 C2 9.33 2 9.66 2 10 C-1.96 10 -5.92 10 -10 10 C-9.34 9.67 -8.68 9.34 -8 9 C-8 7.68 -8 6.36 -8 5 C-11.16115776 6.36983503 -11.9927092 6.9890638 -14 10 C-14.66 10 -15.32 10 -16 10 C-16 12.97 -16 15.94 -16 19 C-19.43076923 15.56923077 -19.43076923 15.56923077 -19.4375 11.625 C-19.31030239 8.37616111 -18.95638641 6.91451736 -17.4375 3.9375 C-15 2 -15 2 -11.4375 1.5625 C-8 2 -8 2 -5 4 C-5 4.66 -5 5.32 -5 6 C-3.02 5.34 -1.04 4.68 1 4 C0.67 2.68 0.34 1.36 0 0 Z " fill="#1FAEE3" transform="translate(76,47)"/>
<path d="M0 0 C1.67542976 0.28604898 3.34385343 0.61781233 5 1 C1.4120794 8.87592326 -6.0756964 16.69500683 -13.9375 20.375 C-14.618125 20.58125 -15.29875 20.7875 -16 21 C-15.375 18.5625 -15.375 18.5625 -14 16 C-10.875 15.1875 -10.875 15.1875 -8 15 C-8 13.68 -8 12.36 -8 11 C-6.68 10.34 -5.36 9.68 -4 9 C-4 8.01 -4 7.02 -4 6 C-2.68 6 -1.36 6 0 6 C-0.2784375 4.7934375 -0.2784375 4.7934375 -0.5625 3.5625 C-0.706875 2.716875 -0.85125 1.87125 -1 1 C-0.67 0.67 -0.34 0.34 0 0 Z " fill="#20A9DB" transform="translate(106,89)"/>
<path d="M0 0 C1.85625 0.0309375 1.85625 0.0309375 3.75 0.0625 C3.75 0.3925 3.75 0.7225 3.75 1.0625 C2.079375 1.495625 2.079375 1.495625 0.375 1.9375 C-3.25291092 2.75491329 -3.25291092 2.75491329 -5.25 5.0625 C-5.25 6.3825 -5.25 7.7025 -5.25 9.0625 C-7.725 8.0725 -7.725 8.0725 -10.25 7.0625 C-10.58 7.7225 -10.91 8.3825 -11.25 9.0625 C-11.58 8.0725 -11.91 7.0825 -12.25 6.0625 C-14.89 6.3925 -17.53 6.7225 -20.25 7.0625 C-14.86553799 2.35109574 -7.1049904 -0.11841651 0 0 Z " fill="#12ADE9" transform="translate(53.25,-0.0625)"/>
<path d="M0 0 C1.78515625 1.51171875 1.78515625 1.51171875 3 3 C3 3.66 3 4.32 3 5 C0.525 4.505 0.525 4.505 -2 4 C-2.33 3.01 -2.66 2.02 -3 1 C-5.475 0.505 -5.475 0.505 -8 0 C-8 -0.66 -8 -1.32 -8 -2 C-10.20857055 -1.85780436 -12.41684987 -1.71108153 -14.625 -1.5625 C-15.85476562 -1.48128906 -17.08453125 -1.40007813 -18.3515625 -1.31640625 C-21.61532388 -1.03336056 -24.77943859 -0.58961047 -28 0 C-19.77431125 -6.75681576 -8.81923389 -4.83844208 0 0 Z " fill="#26A8D9" transform="translate(79,38)"/>
<path d="M0 0 C1.485 0.2475 1.485 0.2475 3 0.5 C12.47292303 1.68411538 22.58930543 1.56844909 32 0 C32 0.66 32 1.32 32 2 C26.75983719 4.1317356 22.12588967 4.33424898 16.5625 4.3125 C15.74201172 4.32861328 14.92152344 4.34472656 14.07617188 4.36132812 C8.6245864 4.36567895 4.861151 3.47964499 0 1 C0 0.67 0 0.34 0 0 Z " fill="#28AADD" transform="translate(47,102)"/>
<path d="M0 0 C0.66 0.33 1.32 0.66 2 1 C1.54109375 1.4846875 1.0821875 1.969375 0.609375 2.46875 C-3.59001468 7.05631856 -6.46488174 11.32133509 -9 17 C-9.82638376 14.10765685 -10 12.11257569 -10 9 C-9.67 8.67 -9.34 8.34 -9 8 C-8.2884375 6.7315625 -8.2884375 6.7315625 -7.5625 5.4375 C-7.046875 4.633125 -6.53125 3.82875 -6 3 C-5.34 3 -4.68 3 -4 3 C-3.67 2.34 -3.34 1.68 -3 1 C-2.01 0.67 -1.02 0.34 0 0 Z " fill="#1DA9D7" transform="translate(30,24)"/>
<path d="M0 0 C0.33 1.98 0.66 3.96 1 6 C1.99 6.33 2.98 6.66 4 7 C8.66666667 11.33333333 8.66666667 11.33333333 10 14 C5.73439116 12.58581617 2.9940014 10.51748869 -0.3125 7.5 C-1.19550781 6.7059375 -2.07851563 5.911875 -2.98828125 5.09375 C-5 3 -5 3 -5 1 C-3 0 -3 0 0 0 Z " fill="#24AEE4" transform="translate(21,95)"/>
<path d="M0 0 C1.17246771 4.09902098 1.07076062 7.75436258 1 12 C0.01 12.495 0.01 12.495 -1 13 C-1.31241371 15.54941373 -1.51303421 18.00361513 -1.625 20.5625 C-1.66367187 21.27341797 -1.70234375 21.98433594 -1.7421875 22.71679688 C-1.83671783 24.47742425 -1.91945817 26.23867728 -2 28 C-2.33 28 -2.66 28 -3 28 C-3.31042285 18.19293733 -3.39925415 9.36818258 0 0 Z " fill="#2CB0DE" transform="translate(5,39)"/>
<path d="M0 0 C2.48009685 2.93410365 3.48492764 5.16107308 4.125 8.9375 C4.27195312 9.77152344 4.41890625 10.60554688 4.5703125 11.46484375 C4.78300781 12.71974609 4.78300781 12.71974609 5 14 C5.32843911 15.66763804 5.66036681 17.3346057 6 19 C2.85871246 17.42935623 2.42190313 14.33238922 1.3125 11.1875 C1.07466797 10.55779297 0.83683594 9.92808594 0.59179688 9.27929688 C-0.63142274 5.86073884 -1.43004376 3.44077195 0 0 Z " fill="#29ABE0" transform="translate(4,68)"/>
<path d="M0 0 C2.10353495 -0.0810206 4.20795952 -0.13919907 6.3125 -0.1875 C7.48425781 -0.22230469 8.65601562 -0.25710937 9.86328125 -0.29296875 C13 0 13 0 14.91796875 1.51171875 C15.45357422 2.24841797 15.45357422 2.24841797 16 3 C15.34 2.835 14.68 2.67 14 2.5 C5.59579151 1.09929859 1.05880187 2.29413208 -6 7 C-5.67 5.35 -5.34 3.7 -5 2 C-3.35 2 -1.7 2 0 2 C0 1.34 0 0.68 0 0 Z " fill="#22ABDA" transform="translate(58,42)"/>
<path d="M0 0 C0.33 1.32 0.66 2.64 1 4 C2.98 4 4.96 4 7 4 C5.25 8.875 5.25 8.875 3 10 C0 10.1875 0 10.1875 -3 10 C-3.66 9.34 -4.32 8.68 -5 8 C-2.03 8 0.94 8 4 8 C4 7.34 4 6.68 4 6 C2.68 5.67 1.36 5.34 0 5 C0 3.35 0 1.7 0 0 Z " fill="#31A6D4" transform="translate(65,58)"/>
<path d="M0 0 C0.33 0 0.66 0 1 0 C1.10957031 0.95519531 1.21914063 1.91039062 1.33203125 2.89453125 C2.30489241 10.82769989 3.61224924 18.34327923 6 26 C1.2801309 21.77897886 0.64810945 18.13211249 0 12 C-0.1414312 7.99278267 -0.12393796 4.00732723 0 0 Z " fill="#28A3D4" transform="translate(16,55)"/>
<path d="M0 0 C0.66 0.33 1.32 0.66 2 1 C-0.77171776 3.97703018 -3.51075252 5.94223867 -7 8 C-7.556875 8.556875 -8.11375 9.11375 -8.6875 9.6875 C-9.3371875 10.3371875 -9.3371875 10.3371875 -10 11 C-10.66 11 -11.32 11 -12 11 C-12.33 11.99 -12.66 12.98 -13 14 C-13.66 13.67 -14.32 13.34 -15 13 C-4.64705882 2.32352941 -4.64705882 2.32352941 0 0 Z " fill="#2CA8D9" transform="translate(31,7)"/>
<path d="M0 0 C0.66 0.33 1.32 0.66 2 1 C1.4714941 7.07781789 -0.23120855 12.54600325 -3 18 C-3.66 18.33 -4.32 18.66 -5 19 C-4.5196685 14.10061866 -3.49795285 11.16325475 -1 7 C-0.28076792 3.30476048 -0.28076792 3.30476048 0 0 Z " fill="#25A3D4" transform="translate(117,69)"/>
<path d="M0 0 C2.96361998 0.43582647 5.05118938 1.02857082 7.6875 2.5 C12.07637145 4.48741349 16.23216541 4.72674466 21 5 C21 5.33 21 5.66 21 6 C13.92617521 6.35109057 8.41753731 6.15042741 2 3 C1.34 2.01 0.68 1.02 0 0 Z " fill="#30ADDE" transform="translate(48,77)"/>
<path d="M0 0 C2.31 1.98 4.62 3.96 7 6 C3 8 3 8 0.25 7.125 C-0.4925 6.75375 -1.235 6.3825 -2 6 C-2 5.34 -2 4.68 -2 4 C-1.34 4 -0.68 4 0 4 C0 2.68 0 1.36 0 0 Z " fill="#17A8E2" transform="translate(51,65)"/>
<path d="M0 0 C-0.99 0.33 -1.98 0.66 -3 1 C-3 1.66 -3 2.32 -3 3 C-7.455 3.495 -7.455 3.495 -12 4 C-4.75 -1.69642857 -4.75 -1.69642857 0 0 Z " fill="#2BA8D8" transform="translate(45,3)"/>
<path d="M0 0 C0.66 0 1.32 0 2 0 C2.66 1.98 3.32 3.96 4 6 C-0.455 6.495 -0.455 6.495 -5 7 C-1.25 4 -1.25 4 1 4 C0.67 2.68 0.34 1.36 0 0 Z " fill="#27ADE9" transform="translate(76,47)"/>
<path d="M0 0 C1.65 0.33 3.3 0.66 5 1 C3.25 4.875 3.25 4.875 1 6 C0.34 5.34 -0.32 4.68 -1 4 C-0.625 1.875 -0.625 1.875 0 0 Z " fill="#12AAE7" transform="translate(106,89)"/>
<path d="M0 0 C-2.93828597 2.50298434 -5.17902761 3.46930939 -9 4 C-9.33 3.01 -9.66 2.02 -10 1 C-6.61981469 -0.04005702 -3.5219721 -0.08004482 0 0 Z " fill="#1FAADB" transform="translate(79,78)"/>
<path d="M0 0 C0 0.99 0 1.98 0 3 C-2.64 3.33 -5.28 3.66 -8 4 C-8 3.01 -8 2.02 -8 1 C-5.29120665 -0.35439668 -2.99066732 -0.06501451 0 0 Z " fill="#06B0F3" transform="translate(79,75)"/>
<path d="M0 0 C2.00720923 0.28674418 4.0085944 0.61866701 6 1 C3.31158141 3.25245881 1.35358125 4.88213958 -2 6 C-1.125 1.125 -1.125 1.125 0 0 Z " fill="#1FA7E2" transform="translate(35,17)"/>
<path d="M0 0 C3.26008643 3.16952847 6.22237877 6.39937989 9 10 C5.55261628 8.46782946 2.74690118 6.59429556 0 4 C0 2.68 0 1.36 0 0 Z " fill="#26A6D5" transform="translate(24,84)"/>
<path d="M0 0 C4.455 1.98 4.455 1.98 9 4 C9 4.33 9 4.66 9 5 C7.02 5 5.04 5 3 5 C3 4.34 3 3.68 3 3 C2.01 2.67 1.02 2.34 0 2 C0 1.34 0 0.68 0 0 Z " fill="#26A9D5" transform="translate(38,97)"/>
</svg>
